<svg xmlns="http://www.w3.org/2000/svg" viewBox="0 0 64 64" fill="none" stroke-linecap="round" stroke-linejoin="round">
<defs><linearGradient id="rplayfair" x1="0" y1="1" x2="1" y2="0"><stop offset="0" stop-color="#5457b8"/><stop offset="1" stop-color="#c3c5ff"/></linearGradient>
<linearGradient id="lplayfair" x1="0" y1="0" x2="0" y2="1"><stop offset="0" stop-color="#d9dbff"/><stop offset="1" stop-color="#8f93ee"/></linearGradient></defs>
<circle cx="32" cy="32" r="31" fill="#17171f"/>
<path d="M45 9.6A26 26 0 1 0 57.3 25.5" stroke="url(#rplayfair)" stroke-width="2.6"/>
<path d="M61.4 29.4 57.3 25.5 54.8 30.6" stroke="#c3c5ff" stroke-width="2.6"/>
<path d="M47.89483779971791 20.5V21.09238363892807Q47.24321579689703 21.3589562764457 46.56197461212976 22.143864598025388Q45.880733427362486 22.928772919605077 45.051396332863185 24.52820874471086L41.55633286318759 31.459097320169253V38.360366713681245Q41.55633286318759 39.426657263751764 41.719238363892806 39.959802538787024Q41.88214386459802 40.49294781382228 42.35605077574048 40.670662905500706Q42.829957686882935 40.84837799717913 43.77777150916784 40.90761636107193V41.5Q42.97805359661495 41.44076163610719 41.719238363892806 41.42595204513399Q40.460423131170664 41.41114245416079 39.21641748942172 41.41114245416079Q37.82431593794076 41.41114245416079 36.58031029619182 41.42595204513399Q35.33630465444288 41.44076163610719 34.625444287729195 41.5V40.90761636107193Q35.5732581100141 40.84837799717913 36.04716502115656 40.670662905500706Q36.52107193229901 40.49294781382228 36.68397743300423 39.959802538787024Q36.84688293370945 39.426657263751764 36.84688293370945 38.360366713681245V33.35472496473907L31.130380818053595 22.78067700987306Q30.597235543018336 21.773624823695346 30.167757404795488 21.447813822284907Q29.738279266572636 21.12200282087447 29.4124682651622 21.12200282087447V20.5Q30.21218617771509 20.58885754583921 31.056332863187585 20.618476727785612Q31.900479548660083 20.648095909732017 32.9075317348378 20.648095909732017Q34.21077574047955 20.648095909732017 35.721354019746116 20.603667136812412Q37.23193229901269 20.559238363892806 38.47593794076164 20.5V21.12200282087447Q37.73545839210155 21.12200282087447 37.14307475317348 21.240479548660083Q36.55069111424542 21.3589562764457 36.313737658674185 21.669957686882935Q36.07678420310296 21.98095909732017 36.432214386459805 22.662200282087447L40.934330042313114 31.340620592383637L43.24462623413258 26.72002820874471Q44.3405359661495 24.58744710860367 44.41458392101551 23.37306064880113Q44.488631875881524 22.15867418899859 43.82220028208745 21.64033850493653Q43.15576868829337 21.12200282087447 41.94138222849083 21.09238363892807V20.5Q42.94843441466855 20.529619181946405 43.83700987306065 20.55923836389281Q44.72558533145275 20.58885754583921 45.643779971791254 20.58885754583921Q46.29540197461213 20.58885754583921 46.872976022566995 20.55923836389281Q47.45055007052186 20.529619181946405 47.89483779971791 20.5Z" fill="url(#lplayfair)"/>
<path d="M34.587531734837796 20.5V21.09238363892807Q33.935909732016924 21.3589562764457 33.25466854724965 22.143864598025388Q32.57342736248237 22.928772919605077 31.744090267983076 24.52820874471086L28.249026798307476 31.459097320169253V38.360366713681245Q28.249026798307476 39.426657263751764 28.411932299012694 39.959802538787024Q28.574837799717912 40.49294781382228 29.048744710860365 40.670662905500706Q29.52265162200282 40.84837799717913 30.47046544428773 40.90761636107193V41.5Q29.67074753173484 41.44076163610719 28.411932299012694 41.42595204513399Q27.153117066290548 41.41114245416079 25.909111424541607 41.41114245416079Q24.51700987306065 41.41114245416079 23.27300423131171 41.42595204513399Q22.028998589562764 41.44076163610719 21.318138222849083 41.5V40.90761636107193Q22.265952045133993 40.84837799717913 22.739858956276446 40.670662905500706Q23.2137658674189 40.49294781382228 23.376671368124118 39.959802538787024Q23.539576868829336 39.426657263751764 23.539576868829336 38.360366713681245V33.35472496473907L17.823074753173483 22.78067700987306Q17.289929478138223 21.773624823695346 16.86045133991537 21.447813822284907Q16.430973201692524 21.12200282087447 16.105162200282088 21.12200282087447V20.5Q16.90488011283498 20.58885754583921 17.749026798307476 20.618476727785612Q18.59317348377997 20.648095909732017 19.600225669957688 20.648095909732017Q20.903469675599435 20.648095909732017 22.414047954866007 20.603667136812412Q23.92462623413258 20.559238363892806 25.168631875881523 20.5V21.12200282087447Q24.42815232722144 21.12200282087447 23.83576868829337 21.240479548660083Q23.2433850493653 21.3589562764457 23.006431593794076 21.669957686882935Q22.76947813822285 21.98095909732017 23.12490832157969 22.662200282087447L27.627023977433005 31.340620592383637L29.937320169252466 26.72002820874471Q31.033229901269394 24.58744710860367 31.1072778561354 23.37306064880113Q31.181325811001408 22.15867418899859 30.514894217207335 21.64033850493653Q29.84846262341326 21.12200282087447 28.63407616361072 21.09238363892807V20.5Q29.641128349788435 20.529619181946405 30.529703808180535 20.55923836389281Q31.41827926657264 20.58885754583921 32.33647390691114 20.58885754583921Q32.98809590973202 20.58885754583921 33.56566995768688 20.55923836389281Q34.14324400564175 20.529619181946405 34.587531734837796 20.5Z" fill="#ffffff"/>
<circle cx="28.4" cy="49.6" r="2.1" fill="#868add"/><circle cx="35.6" cy="49.6" r="2.1" fill="#868add"/>
</svg>