<svg xmlns="http://www.w3.org/2000/svg" viewBox="0 0 320 200" fill="none" stroke="currentColor" stroke-width="1.25" stroke-linecap="square" stroke-linejoin="miter" aria-hidden="true">
<!-- Project 2: current state, options, recommended model. Page CSS: .acc{stroke:var(--accent)} .acc-f{fill:var(--accent)} -->
<path d="M20 170H300" stroke-width="1" stroke-dasharray="2 4" opacity=".45"/>
<rect x="36" y="86" width="28" height="28" rx="2"/>
<path d="M42 96h16M42 104h10" stroke-width="1"/>
<path d="M64 100h26M90 52v96M90 52h56M90 100h56M90 148h56"/>
<path d="M142 48l4 4-4 4M142 96l4 4-4 4M142 144l4 4-4 4" />
<rect x="152" y="44" width="16" height="16" rx="2"/><rect x="152" y="140" width="16" height="16" rx="2"/>
<path d="M174 52h40v48M174 148h40v-48" stroke-dasharray="3 3"/>
<rect class="acc" x="152" y="92" width="16" height="16" rx="2"/>
<path class="acc" d="M168 100h86"/>
<path class="acc" d="M250 96l4 4-4 4"/>
<rect x="258" y="80" width="40" height="40" rx="2"/>
<path class="acc-f" stroke="none" d="M273 95h10v10h-10z"/>
</svg>
