<svg xmlns="http://www.w3.org/2000/svg" viewBox="0 0 320 200" fill="none" stroke="currentColor" stroke-width="1.25" stroke-linecap="square" stroke-linejoin="miter" aria-hidden="true">
<!-- Project 1: sector value chain, market gaps to sustainability. Page CSS: .acc{stroke:var(--accent)} .acc-f{fill:var(--accent)} -->
<path d="M20 170H300" stroke-width="1" stroke-dasharray="2 4" opacity=".45"/>
<path d="M61 146H106V132M115 122H160V108M169 98H214V84M223 74H268V60"/>
<path d="M103 138l3-3 3 3M157 114l3-3 3 3M211 90l3-3 3 3M265 66l3-3 3 3"/>
<rect x="43" y="137" width="18" height="18" rx="2" stroke-dasharray="3 2.5"/>
<rect x="97" y="113" width="18" height="18" rx="2"/>
<path d="M101 122h10M106 117v10" stroke-width="1"/>
<rect x="151" y="89" width="18" height="18" rx="2"/>
<path d="M155 93h10v10h-10z" stroke-width="1"/>
<rect class="acc" x="205" y="65" width="18" height="18" rx="2"/>
<path class="acc-f" stroke="none" d="M210 70h8v8h-8z"/>
<rect x="259" y="41" width="18" height="18" rx="2"/>
<rect x="255" y="37" width="26" height="26" rx="3" stroke-width="1"/>
<path d="M52 166v8M106 166v8M160 166v8M214 166v8M268 166v8" stroke-width="1"/>
</svg>
